<svg width="24" height="24" viewBox="0 0 24 24" fill="none" xmlns="http://www.w3.org/2000/svg">
  <circle cx="12" cy="12" r="10" fill="#0F172A"/>
  <path d="M12 2a10 10 0 1 0 0 20 10 10 0 0 0 0-20zm-1.25 14.75a7.5 7.5 0 0 1-3.5-1.87c0-1 1.5-1.5 3-1.5h1.25v1.25a1.25 1.25 0 0 0 2.5 0v-1.25a4.29 4.29 0 0 0 1.25-3C15.25 8.29 13.71 6.75 12 6.75s-3.25 1.54-3.25 3.63a4.29 4.29 0 0 0 1.25 3v.12c-3 .38-5 1.5-5 3a7.56 7.56 0 0 1-1-3.75A8.25 8.25 0 0 1 12 3.75a8.25 8.25 0 0 1 8.25 8.25A8.25 8.25 0 0 1 12 20.25a8.16 8.16 0 0 1-1.25-.09z" fill="#F97316"/>
</svg>