<?xml version="1.0" standalone="no"?>
<!DOCTYPE svg PUBLIC "-//W3C//DTD SVG 20010904//EN"
 "http://www.w3.org/TR/2001/REC-SVG-20010904/DTD/svg10.dtd">
<svg version="1.0" xmlns="http://www.w3.org/2000/svg"
 width="363.000000pt" height="363.000000pt" viewBox="0 0 363.000000 363.000000"
 preserveAspectRatio="xMidYMid meet">

<g transform="translate(0.000000,363.000000) scale(0.100000,-0.100000)"
fill="#000000" stroke="none">
<path d="M1967 3567 c-3 -8 -8 -40 -10 -73 -3 -32 -3 -44 1 -26 4 18 11 34 17
35 5 1 8 18 6 37 -3 40 -6 46 -14 27z"/>
<path d="M1291 3488 c1 -24 5 -56 10 -73 6 -24 7 -19 4 20 -4 48 -4 49 11 25
l15 -25 -7 25 c-11 40 -23 70 -29 70 -3 0 -4 -19 -4 -42z"/>
<path d="M1849 3493 c0 -5 -2 -19 -5 -33 -4 -24 -3 -24 11 -6 17 23 20 46 5
46 -5 0 -10 -3 -11 -7z"/>
<path d="M1841 3414 c0 -11 3 -14 6 -6 3 7 2 16 -1 19 -3 4 -6 -2 -5 -13z"/>
<path d="M1440 3388 c0 -15 36 -118 45 -126 3 -3 5 1 5 8 0 9 5 7 15 -6 14
-18 14 -17 3 9 -7 17 -14 23 -18 16 -5 -6 -9 -3 -13 10 -3 12 -1 19 4 15 12
-7 11 -2 -6 39 -16 38 -35 57 -35 35z"/>
<path d="M1231 3315 c0 -11 9 -38 20 -60 10 -22 16 -30 13 -17 -8 34 3 26 26
-18 11 -22 23 -40 25 -40 7 0 -49 110 -69 135 l-15 20 0 -20z"/>
<path d="M1992 3310 c0 -14 2 -19 5 -12 2 6 2 18 0 25 -3 6 -5 1 -5 -13z"/>
<path d="M1741 3268 c2 -30 3 -35 6 -15 3 15 9 25 15 21 6 -4 8 1 6 11 -1 10
-9 20 -15 23 -9 2 -13 -9 -12 -40z"/>
<path d="M1177 3248 c3 -18 10 -42 14 -53 l8 -20 1 20 c1 20 1 20 15 1 21 -28
19 -14 -7 39 -26 53 -40 59 -31 13z"/>
<path d="M2002 3235 c0 -16 2 -22 5 -12 2 9 2 23 0 30 -3 6 -5 -1 -5 -18z"/>
<path d="M1520 3237 c0 -10 80 -157 86 -157 5 0 -22 54 -60 120 -14 25 -26 41
-26 37z"/>
<path d="M1270 3201 c0 -6 4 -13 10 -16 6 -3 7 1 4 9 -7 18 -14 21 -14 7z"/>
<path d="M1456 3187 c3 -10 9 -15 12 -12 3 3 0 11 -7 18 -10 9 -11 8 -5 -6z"/>
<path d="M1510 3198 c0 -3 11 -31 25 -63 14 -32 24 -60 21 -62 -3 -3 -17 8
-31 23 -20 23 -18 16 10 -28 43 -70 31 -75 -24 -10 l-41 47 0 -43 c0 -52 -10
-48 -51 21 -17 29 -28 44 -25 33 5 -15 2 -17 -14 -13 -18 4 -16 -1 13 -41 34
-47 62 -111 52 -120 -6 -6 -2 -11 -59 67 -25 35 -46 59 -46 55 0 -5 7 -18 15
-28 32 -42 14 -50 -22 -11 l-36 40 28 -40 c16 -22 39 -51 51 -65 13 -14 33
-52 44 -84 11 -32 29 -74 41 -95 16 -27 3 -17 -50 39 -57 59 -67 67 -50 38 24
-43 20 -46 -24 -17 -25 16 -22 11 13 -23 25 -23 65 -72 89 -107 l43 -64 -33
24 c-19 13 -67 55 -108 94 l-75 70 53 -64 c28 -35 50 -65 47 -68 -7 -7 -86 50
-149 107 -33 31 -58 46 -62 40 -11 -17 21 -58 119 -154 57 -56 92 -98 93 -113
2 -27 -5 -28 -52 -9 -64 27 -36 7 48 -34 46 -23 96 -52 112 -66 17 -15 49 -39
73 -56 23 -16 42 -30 42 -32 0 -2 -22 3 -48 9 -109 29 -247 112 -331 199 -36
37 -32 48 7 20 13 -9 25 -14 28 -11 3 2 -10 14 -28 25 -18 12 -43 29 -55 38
-22 15 -23 15 -23 -2 0 -23 116 -135 187 -181 77 -49 97 -100 23 -58 -14 8
-34 14 -45 14 -34 0 65 -46 126 -58 38 -8 69 -23 95 -45 22 -18 55 -43 74 -55
48 -29 19 -26 -81 8 -106 36 -155 63 -218 118 -28 25 -51 40 -51 34 0 -11 72
-72 107 -90 12 -6 32 -25 44 -42 l22 -32 -37 7 c-21 4 -44 10 -52 13 -8 3 -14
-1 -14 -9 0 -17 41 -58 57 -58 6 0 13 -3 15 -7 4 -9 62 -43 74 -43 4 0 -21 18
-56 41 -34 22 -60 43 -57 46 4 3 29 -2 56 -11 27 -9 70 -16 95 -16 37 0 55 -7
92 -35 26 -20 62 -42 80 -50 19 -8 34 -16 34 -18 0 -7 -94 3 -124 13 -16 6
-36 10 -45 9 -9 0 5 -7 32 -16 73 -25 59 -38 -40 -36 -19 1 -30 -3 -27 -9 4
-6 33 -8 69 -5 58 5 65 3 93 -23 17 -15 28 -31 25 -34 -4 -3 2 -6 13 -7 10 0
62 -2 114 -4 52 -2 111 -6 130 -10 l35 -5 -30 16 c-41 22 -84 63 -102 97 -20
40 -12 43 36 13 22 -14 45 -26 51 -26 5 0 10 -4 10 -8 0 -5 19 -19 43 -32 99
-54 149 -142 97 -170 -11 -6 -20 -7 -20 -3 0 4 -5 2 -12 -5 -19 -19 -33 -14
-15 6 23 25 21 65 -3 87 -19 18 -20 17 -20 -3 0 -13 -18 -36 -46 -59 -156
-128 -253 -239 -309 -353 -15 -30 -31 -64 -37 -74 -28 -53 -97 -288 -113 -386
-24 -147 -110 -396 -192 -555 -87 -169 -107 -203 -143 -250 -41 -54 -47 -65
-30 -65 15 0 185 146 224 193 37 45 53 46 37 3 -6 -14 -7 -26 -2 -26 15 0 119
223 136 290 9 36 25 97 36 135 20 73 50 247 44 254 -2 2 -7 -9 -11 -25 -6 -23
-8 -25 -14 -10 -4 11 -12 -14 -23 -67 -9 -47 -23 -100 -32 -119 -8 -18 -13
-25 -10 -15 3 10 7 37 10 60 4 35 1 31 -19 -28 -27 -80 -55 -145 -56 -129 0 6
9 36 19 67 11 31 36 127 56 214 39 168 54 211 76 229 10 8 104 44 113 44 8 0
-6 -264 -18 -342 -18 -114 -86 -328 -131 -413 -46 -85 -60 -110 -66 -115 -14
-12 -58 -84 -54 -89 3 -2 18 10 35 27 36 39 48 41 26 6 -10 -14 -16 -30 -14
-35 9 -28 145 274 204 455 10 32 20 51 22 42 5 -22 -24 -145 -48 -206 -29 -73
-17 -61 21 20 18 39 34 69 36 66 7 -6 -39 -128 -75 -201 -44 -88 -95 -164
-162 -237 -55 -62 -86 -78 -50 -27 12 16 19 33 16 36 -3 4 -6 2 -6 -3 0 -5
-14 -25 -30 -44 -29 -33 -41 -68 -20 -55 6 4 8 11 5 16 -3 5 0 6 7 4 21 -8
191 157 237 230 23 36 47 78 53 93 23 56 18 -4 -6 -76 -14 -40 -21 -70 -15
-67 5 4 9 14 9 23 0 12 3 13 8 5 5 -9 12 -6 21 10 13 20 13 21 -2 8 -22 -17
-22 -18 9 70 58 171 82 387 60 556 -6 42 -12 60 -20 56 -6 -4 -4 2 4 12 8 10
10 16 3 12 -6 -4 -14 -1 -17 5 -3 7 -4 -15 -3 -50 1 -34 -1 -62 -4 -62 -12 0
-31 182 -24 228 5 35 15 54 43 79 27 25 38 30 45 20 6 -8 7 -6 3 6 -9 29 22
32 50 4 38 -39 115 -60 189 -55 89 8 112 25 27 20 -62 -4 -71 -2 -98 21 -38
34 -27 52 59 94 36 18 69 37 72 44 5 7 0 7 -16 -2 -16 -8 -9 5 22 38 38 40 49
61 59 109 24 117 32 138 60 166 38 37 60 35 130 -12 32 -22 63 -40 67 -40 4 0
1 5 -7 11 -11 8 -8 9 14 4 15 -3 42 -9 60 -12 17 -3 34 -10 37 -15 3 -5 16 17
28 48 12 31 19 59 16 62 -3 3 -5 0 -5 -7 0 -17 -59 -40 -92 -36 -39 4 -95 41
-115 76 -9 16 -32 36 -50 44 -19 9 -31 20 -29 24 6 9 36 8 52 -1 5 -4 41 -19
79 -33 58 -22 80 -26 130 -21 40 4 62 11 68 22 22 39 82 95 111 104 l31 9 -35
-3 c-42 -3 -100 11 -100 24 0 6 21 10 46 10 34 0 62 9 110 36 64 36 67 36 147
30 84 -6 105 -8 217 -26 111 -17 139 -19 145 -10 4 6 0 10 -8 10 -8 0 -28 7
-43 15 -16 8 -36 15 -44 14 -8 0 -1 -6 15 -14 17 -8 21 -13 10 -11 -11 3 -38
7 -60 10 -205 27 -275 40 -275 52 0 7 -12 14 -27 16 -20 2 -29 11 -37 35 -24
72 -131 96 -151 34 -5 -16 -11 -17 -53 -9 -80 16 -107 13 -144 -20 -32 -27
-19 -4 17 31 20 19 56 45 80 58 57 30 57 43 3 34 -31 -4 -39 -3 -28 4 8 6 10
11 4 11 -18 0 -83 -48 -111 -81 -14 -17 -43 -58 -65 -91 -62 -95 -108 -123
-154 -93 -23 15 -24 19 -18 99 6 78 4 90 -26 172 -22 61 -32 105 -31 142 0 29
-8 78 -18 110 -53 158 -128 472 -132 555 -1 12 -5 2 -9 -23 -5 -25 -11 -56
-14 -70 -2 -14 -5 -34 -6 -45 -1 -20 -1 -20 -10 0 -6 16 -14 57 -20 103 0 2
-5 0 -11 -4 -6 -3 -16 0 -21 7 -7 10 -8 5 -3 -15 18 -81 20 -116 11 -176 l-9
-65 -26 82 c-24 74 -28 81 -45 71 -14 -8 -21 -7 -27 3 -13 21 -11 6 7 -42 14
-40 45 -200 39 -207 -1 -1 -14 26 -29 60 -15 35 -34 77 -42 95 -8 17 -14 37
-14 45 -1 7 -6 0 -13 -16 l-13 -29 -15 24 c-8 13 -20 37 -27 53 -7 16 -15 26
-19 23 -7 -8 29 -107 37 -102 3 2 6 -8 5 -23 0 -17 -6 -28 -17 -30 -10 -2 -18
1 -18 7 0 5 -23 45 -50 88 -44 69 -50 74 -44 43 7 -44 -2 -32 -57 75 -42 81
-49 93 -49 83z m-240 -448 c30 -25 60 -50 67 -57 7 -6 28 -21 48 -33 19 -12
35 -25 35 -29 0 -4 17 -27 38 -51 l37 -44 -50 33 c-96 65 -186 148 -248 228
-25 33 -19 29 73 -47z m591 -119 c16 -25 36 -59 45 -76 l16 -30 -20 20 c-24
24 -132 194 -132 208 0 11 49 -54 91 -122z m-43 2 c36 -58 91 -173 82 -173
-18 0 -101 101 -115 139 -31 89 -14 107 33 34z m-13 -120 c10 -16 37 -46 60
-68 l43 -40 -42 3 c-46 5 -78 29 -96 73 -12 29 -8 59 9 59 5 0 17 -12 26 -27z
m145 -15 c0 -6 -6 -5 -15 2 -8 7 -15 14 -15 16 0 2 7 1 15 -2 8 -4 15 -11 15
-16z m-140 -109 c3 -3 33 -24 68 -48 34 -23 62 -46 62 -51 0 -6 6 -10 14 -10
8 0 16 -6 19 -14 5 -13 1 -13 -35 0 -22 8 -50 14 -62 14 -37 0 -106 86 -106
132 0 9 24 -5 40 -23z m150 -209 c3 -3 16 -14 30 -24 l25 -17 -40 6 c-64 10
-119 44 -153 94 -18 26 -32 49 -32 53 0 6 159 -98 170 -112z m820 60 c0 -5 -4
-10 -10 -10 -5 0 -10 5 -10 10 0 6 5 10 10 10 6 0 10 -4 10 -10z m-620 -557
c-16 -90 -72 -142 -197 -184 -37 -12 -84 -38 -114 -62 -27 -23 -68 -56 -89
-73 -21 -18 -67 -41 -102 -52 -35 -11 -71 -24 -82 -28 -17 -7 -17 -5 -2 25 9
17 22 31 29 31 8 0 27 12 44 28 78 69 133 119 191 173 34 33 67 59 72 59 6 0
10 4 10 9 0 12 33 21 115 31 63 7 73 11 100 44 17 19 31 36 31 36 1 0 -2 -17
-6 -37z"/>
<path d="M1136 3058 c20 -67 96 -196 126 -214 6 -4 0 8 -14 27 -33 44 -71 119
-64 126 7 8 -35 83 -47 83 -4 0 -5 -10 -1 -22z"/>
<path d="M1270 2895 c13 -14 26 -25 28 -25 3 0 -5 11 -18 25 -13 14 -26 25
-28 25 -3 0 5 -11 18 -25z"/>
<path d="M2608 2373 c6 -2 18 -2 25 0 6 3 1 5 -13 5 -14 0 -19 -2 -12 -5z"/>
<path d="M2688 2373 c7 -3 16 -2 19 1 4 3 -2 6 -13 5 -11 0 -14 -3 -6 -6z"/>
<path d="M2790 2348 c3 -3 28 -23 55 -43 29 -22 41 -28 28 -14 -12 13 -37 33
-55 43 -18 11 -31 17 -28 14z"/>
<path d="M3018 2173 c7 -3 16 -2 19 1 4 3 -2 6 -13 5 -11 0 -14 -3 -6 -6z"/>
<path d="M3098 2153 c7 -3 16 -2 19 1 4 3 -2 6 -13 5 -11 0 -14 -3 -6 -6z"/>
<path d="M1376 2122 c-8 -14 25 -40 73 -57 62 -21 64 -18 7 11 -37 20 -46 28
-35 35 9 5 10 9 2 9 -6 0 -18 3 -26 6 -8 3 -18 1 -21 -4z"/>
<path d="M1468 2103 c7 -3 16 -2 19 1 4 3 -2 6 -13 5 -11 0 -14 -3 -6 -6z"/>
<path d="M2869 2093 c-13 -16 -12 -17 4 -4 16 13 21 21 13 21 -2 0 -10 -8 -17
-17z"/>
<path d="M1548 2033 c6 -2 18 -2 25 0 6 3 1 5 -13 5 -14 0 -19 -2 -12 -5z"/>
<path d="M1638 2028 c7 -7 16 -7 28 0 14 8 13 10 -10 10 -18 0 -24 -4 -18 -10z"/>
<path d="M2350 1449 c-35 -31 -35 -31 -3 -9 18 11 35 25 38 30 10 16 2 11 -35
-21z"/>
<path d="M1892 879 c0 -44 -6 -96 -12 -115 -7 -20 -10 -38 -7 -40 3 -3 8 8 12
25 9 42 25 49 25 12 0 -16 4 -32 9 -36 11 -6 25 93 18 121 -3 11 -6 -3 -7 -31
-2 -42 -4 -35 -12 40 -5 50 -13 93 -17 98 -4 4 -8 -29 -9 -74z"/>
<path d="M1861 693 c-1 -6 -4 -20 -7 -30 -5 -17 -5 -17 6 0 6 10 9 23 6 30 -3
9 -5 9 -5 0z"/>
<path d="M1826 605 c-9 -26 -7 -32 5 -12 6 10 9 21 6 23 -2 3 -7 -2 -11 -11z"/>
<path d="M1365 360 c-3 -5 -1 -10 4 -10 6 0 11 5 11 10 0 6 -2 10 -4 10 -3 0
-8 -4 -11 -10z"/>
<path d="M1198 166 c-38 -34 -68 -65 -68 -69 0 -17 27 -3 106 54 89 65 116 92
38 39 -54 -38 -69 -32 -29 10 47 49 24 33 -47 -34z m17 -16 c-3 -5 -11 -10
-16 -10 -6 0 -7 5 -4 10 3 6 11 10 16 10 6 0 7 -4 4 -10z"/>
</g>
</svg>
