<?xml version="1.0" encoding="UTF-8"?>
<!DOCTYPE svg PUBLIC "-//W3C//DTD SVG 1.1//EN" "http://www.w3.org/Graphics/SVG/1.1/DTD/svg11.dtd">
<svg xmlns="http://www.w3.org/2000/svg" version="1.1" width="500px" height="500px" style="shape-rendering:geometricPrecision; text-rendering:geometricPrecision; image-rendering:optimizeQuality; fill-rule:evenodd; clip-rule:evenodd" xmlns:xlink="http://www.w3.org/1999/xlink">
<g><path style="opacity:0.99" fill="#ffdf61" d="M 317.5,140.5 C 320.231,144.234 323.564,147.234 327.5,149.5C 329.766,153.436 332.766,156.769 336.5,159.5C 337.906,159.973 338.573,160.973 338.5,162.5C 344.906,172.243 350.906,182.243 356.5,192.5C 356.958,196.166 357.958,199.666 359.5,203C 371.566,204.378 383.233,207.211 394.5,211.5C 395.574,212.885 396.907,214.051 398.5,215C 423.457,213.193 448.123,215.027 472.5,220.5C 474.733,226.924 472.4,229.257 465.5,227.5C 465.167,227.5 464.833,227.5 464.5,227.5C 460.216,225.196 455.55,223.696 450.5,223C 436.146,221.178 421.812,221.178 407.5,223C 403.73,223.722 400.397,225.222 397.5,227.5C 396.833,227.833 396.167,228.167 395.5,228.5C 395.44,227.957 395.107,227.624 394.5,227.5C 391.5,229 388.5,230.5 385.5,232C 382.591,233.406 380.591,235.572 379.5,238.5C 375.32,241.867 372.487,246.2 371,251.5C 366.183,266.617 362.183,281.95 359,297.5C 356.009,305.133 353.009,312.8 350,320.5C 341.031,332.143 332.031,343.809 323,355.5C 318.898,360.104 314.398,364.104 309.5,367.5C 301.642,370.93 293.976,374.597 286.5,378.5C 255.576,391.714 223.576,395.047 190.5,388.5C 188.095,387.232 185.428,386.565 182.5,386.5C 182.167,386.5 181.833,386.5 181.5,386.5C 174.793,382.927 167.793,379.927 160.5,377.5C 155.335,373.414 149.668,370.08 143.5,367.5C 143.027,366.094 142.027,365.427 140.5,365.5C 140.586,364.504 140.252,363.671 139.5,363C 136.444,361.144 133.444,359.311 130.5,357.5C 128.5,353.5 125.5,350.5 121.5,348.5C 114.281,340.11 107.615,331.277 101.5,322C 95.3697,320.847 89.5364,319.014 84,316.5C 83.0339,313.66 83.8672,311.66 86.5,310.5C 89.6229,310.442 91.9563,309.108 93.5,306.5C 79.9908,271.204 78.9908,235.537 90.5,199.5C 93.0371,197.368 93.0371,195.201 90.5,193C 84.9597,190.541 79.293,188.375 73.5,186.5C 70.2017,183.664 66.3684,181.664 62,180.5C 61.1368,178.251 61.6368,176.418 63.5,175C 75.5924,175.514 87.5924,177.014 99.5,179.5C 101.262,178.312 102.262,176.645 102.5,174.5C 108.469,166.858 114.469,159.191 120.5,151.5C 120.5,150.833 120.833,150.5 121.5,150.5C 128.859,144.138 136.192,137.804 143.5,131.5C 143.842,130.662 144.508,130.328 145.5,130.5C 150.701,127.737 155.701,124.737 160.5,121.5C 216.635,97.756 268.968,104.089 317.5,140.5 Z M 247.5,116.5 C 250.219,117.913 253.219,118.58 256.5,118.5C 262.099,121.407 268.099,123.407 274.5,124.5C 282.925,129.205 291.592,133.538 300.5,137.5C 302.912,141.238 306.246,143.905 310.5,145.5C 326.946,160.398 339.446,178.064 348,198.5C 348.708,199.381 349.542,200.047 350.5,200.5C 350.389,201.117 350.056,201.617 349.5,202C 327.676,203.665 315.01,215.165 311.5,236.5C 309.249,241.851 307.416,247.518 306,253.5C 304.884,256.756 303.051,259.422 300.5,261.5C 300.158,260.662 299.492,260.328 298.5,260.5C 298.586,259.504 298.252,258.671 297.5,258C 288.022,250.927 277.689,245.427 266.5,241.5C 265.657,239.827 264.324,238.66 262.5,238C 256.103,234.812 249.436,232.312 242.5,230.5C 236.872,226.529 230.539,223.863 223.5,222.5C 222.22,221.069 220.553,220.402 218.5,220.5C 217.251,218.864 215.584,217.697 213.5,217C 206.905,214.532 200.239,212.365 193.5,210.5C 185.354,206.105 176.688,202.772 167.5,200.5C 161.47,196.65 154.804,194.317 147.5,193.5C 144.916,191.528 141.916,190.528 138.5,190.5C 137.942,189.21 136.942,188.377 135.5,188C 127.878,185.792 120.211,183.792 112.5,182C 110.893,180.951 110.227,179.451 110.5,177.5C 113.605,174.725 115.938,171.392 117.5,167.5C 118.167,167.5 118.5,167.167 118.5,166.5C 122.784,163.248 126.118,159.248 128.5,154.5C 132.007,153.087 134.673,150.754 136.5,147.5C 137.5,147.167 138.167,146.5 138.5,145.5C 142.377,144.289 145.377,141.956 147.5,138.5C 148.167,138.5 148.5,138.167 148.5,137.5C 155.835,134.394 162.835,130.728 169.5,126.5C 176.318,123.877 183.318,121.71 190.5,120C 191.056,119.617 191.389,119.117 191.5,118.5C 192.167,118.5 192.833,118.5 193.5,118.5C 211.387,115.361 229.387,114.694 247.5,116.5 Z M 125.5,195.5 C 128.619,196.87 131.952,197.87 135.5,198.5C 144.387,202.734 153.72,206.067 163.5,208.5C 164.058,209.79 165.058,210.623 166.5,211C 172.479,213.157 178.479,214.991 184.5,216.5C 185.78,217.931 187.447,218.598 189.5,218.5C 197.257,222.981 205.59,226.315 214.5,228.5C 215.058,229.79 216.058,230.623 217.5,231C 222.095,232.802 226.762,234.302 231.5,235.5C 240.723,240.608 250.39,244.941 260.5,248.5C 260.833,248.5 261.167,248.5 261.5,248.5C 261.414,249.496 261.748,250.329 262.5,251C 267.087,253.13 271.753,254.963 276.5,256.5C 276.973,257.906 277.973,258.573 279.5,258.5C 283.148,261.66 287.148,264.327 291.5,266.5C 303.606,275.441 313.44,286.441 321,299.5C 326.269,313.357 326.769,327.357 322.5,341.5C 315.799,348.203 308.799,354.536 301.5,360.5C 294.966,364.434 288.299,367.767 281.5,370.5C 273.826,371.084 266.159,371.751 258.5,372.5C 251.371,371.185 244.037,370.518 236.5,370.5C 235.833,370.167 235.167,369.833 234.5,369.5C 223.671,367.456 213.005,364.456 202.5,360.5C 198.194,356.679 193.527,353.345 188.5,350.5C 184.786,344.607 180.453,339.107 175.5,334C 173.091,332.293 170.425,331.46 167.5,331.5C 167.158,330.662 166.492,330.328 165.5,330.5C 162.597,328.352 159.264,326.852 155.5,326C 146.947,323.528 138.28,321.694 129.5,320.5C 129.167,320.5 128.833,320.5 128.5,320.5C 127.653,319.034 126.32,318.2 124.5,318C 122.19,317.503 119.857,317.337 117.5,317.5C 113.637,316.283 109.97,314.616 106.5,312.5C 107.025,311.808 107.692,311.308 108.5,311C 111,310.833 113.5,310.667 116,310.5C 129.19,312.045 142.357,313.711 155.5,315.5C 161.263,317.142 167.263,318.142 173.5,318.5C 178.95,320.225 184.617,321.725 190.5,323C 195.799,324.145 201.132,324.478 206.5,324C 209.993,318.316 208.326,314.983 201.5,314C 197.886,313.064 194.22,312.564 190.5,312.5C 184.961,311.009 179.294,309.509 173.5,308C 154.523,305.243 135.523,302.743 116.5,300.5C 113.645,300.503 110.978,300.836 108.5,301.5C 106.708,301.366 105.042,301.699 103.5,302.5C 101.567,301.358 100.067,299.692 99,297.5C 89.1677,265.541 89.001,233.541 98.5,201.5C 99.1174,201.389 99.6174,201.056 100,200.5C 102.869,202.85 106.035,204.516 109.5,205.5C 110.899,206.89 112.566,207.89 114.5,208.5C 114.414,209.496 114.748,210.329 115.5,211C 123.727,215.939 131.727,221.105 139.5,226.5C 139.842,227.338 140.508,227.672 141.5,227.5C 142.117,229.229 143.117,230.729 144.5,232C 150.385,236.102 156.052,240.436 161.5,245C 184.845,266.172 205.845,289.338 224.5,314.5C 237.469,322.158 250.135,330.158 262.5,338.5C 262.511,340.017 263.177,341.184 264.5,342C 271.93,345.973 275.096,343.806 274,335.5C 272.568,333.561 270.735,332.228 268.5,331.5C 267.04,329.537 265.373,327.704 263.5,326C 254.739,320.29 245.739,315.124 236.5,310.5C 233.167,307.167 229.833,303.833 226.5,300.5C 224.967,296.296 222.3,292.963 218.5,290.5C 215.954,285.281 212.287,280.948 207.5,277.5C 204.564,272.895 200.898,268.895 196.5,265.5C 191.764,259.258 186.431,253.424 180.5,248C 173.919,241.578 166.919,235.745 159.5,230.5C 159.167,230.5 158.833,230.5 158.5,230.5C 156.564,226.689 153.564,224.022 149.5,222.5C 148.5,221.833 147.5,221.167 146.5,220.5C 143.728,216.613 140.061,213.946 135.5,212.5C 134.375,210.871 133.041,209.371 131.5,208C 127.139,205.488 122.806,202.988 118.5,200.5C 118.167,200.5 117.833,200.5 117.5,200.5C 117.063,198.926 116.063,197.759 114.5,197C 110.835,195.503 107.502,193.503 104.5,191C 111.421,192.491 118.421,193.991 125.5,195.5 Z M 378.5,214.5 C 380.214,215.738 382.214,216.405 384.5,216.5C 385.78,217.931 387.447,218.598 389.5,218.5C 389.833,219.167 390.167,219.833 390.5,220.5C 388.62,220.229 387.287,220.896 386.5,222.5C 372.216,228.457 363.883,239.124 361.5,254.5C 357.051,266.694 353.717,279.36 351.5,292.5C 351.5,292.833 351.5,293.167 351.5,293.5C 348.005,300.509 345.005,307.842 342.5,315.5C 340.197,317.978 338.031,320.645 336,323.5C 336.664,313.835 334.997,304.502 331,295.5C 330.051,293.907 328.885,292.574 327.5,291.5C 327.771,289.62 327.104,288.287 325.5,287.5C 324.449,284.039 322.449,281.373 319.5,279.5C 316.341,275.499 313.341,271.332 310.5,267C 313.699,262.243 316.032,257.077 317.5,251.5C 320.44,243.429 322.94,235.095 325,226.5C 327.335,223.335 329.835,220.335 332.5,217.5C 336.207,215.399 340.207,213.899 344.5,213C 355.904,212.155 367.237,212.655 378.5,214.5 Z M 127.5,328.5 C 127.833,328.5 128.167,328.5 128.5,328.5C 129.058,329.79 130.058,330.623 131.5,331C 141.842,333.507 152.175,336.007 162.5,338.5C 164.318,340.567 166.651,341.9 169.5,342.5C 174.569,350.074 180.569,356.908 187.5,363C 190.411,364.761 193.411,366.261 196.5,367.5C 203.519,372.843 211.519,375.843 220.5,376.5C 223.171,378.118 226.171,378.785 229.5,378.5C 230.5,378.5 231.5,378.5 232.5,378.5C 232.611,379.117 232.944,379.617 233.5,380C 238.728,380.296 243.728,381.129 248.5,382.5C 245.482,382.704 242.482,383.037 239.5,383.5C 225.435,384.521 211.435,383.854 197.5,381.5C 196.833,381.5 196.167,381.5 195.5,381.5C 187.057,378.129 178.39,375.129 169.5,372.5C 162.889,368.842 156.222,365.175 149.5,361.5C 149.158,360.662 148.492,360.328 147.5,360.5C 145.107,356.786 141.774,354.119 137.5,352.5C 136.833,351.167 135.833,350.167 134.5,349.5C 128.833,343.5 123.167,337.5 117.5,331.5C 116.65,329.506 116.15,327.506 116,325.5C 119.548,327.512 123.381,328.512 127.5,328.5 Z"/></g>
<g><path style="opacity:0.098" fill="#fff9e4" d="M 317.5,140.5 C 268.968,104.089 216.635,97.756 160.5,121.5C 162.428,119.526 164.761,118.026 167.5,117C 218.557,97.1042 266.557,102.771 311.5,134C 314.294,135.535 316.294,137.702 317.5,140.5 Z"/></g>
<g><path style="opacity:0.805" fill="#fff2c2" d="M 247.5,116.5 C 229.387,114.694 211.387,115.361 193.5,118.5C 193.611,117.883 193.944,117.383 194.5,117C 208.665,113.775 222.998,112.775 237.5,114C 241.133,114.149 244.466,114.982 247.5,116.5 Z"/></g>
<g><path style="opacity:0.831" fill="#fff2c2" d="M 247.5,116.5 C 250.187,116.336 252.854,116.503 255.5,117C 256.056,117.383 256.389,117.883 256.5,118.5C 253.219,118.58 250.219,117.913 247.5,116.5 Z"/></g>
<g><path style="opacity:0.02" fill="#fffcf0" d="M 256.5,118.5 C 263.144,118.835 269.144,120.835 274.5,124.5C 268.099,123.407 262.099,121.407 256.5,118.5 Z"/></g>
<g><path style="opacity:0.149" fill="#fffae1" d="M 191.5,118.5 C 191.389,119.117 191.056,119.617 190.5,120C 183.318,121.71 176.318,123.877 169.5,126.5C 176.073,122.083 183.406,119.417 191.5,118.5 Z"/></g>
<g><path style="opacity:0.059" fill="#fffbe7" d="M 160.5,121.5 C 155.701,124.737 150.701,127.737 145.5,130.5C 145.414,129.504 145.748,128.671 146.5,128C 150.991,125.342 155.658,123.175 160.5,121.5 Z"/></g>
<g><path style="opacity:0.024" fill="#fff8dc" d="M 274.5,124.5 C 283.913,127.206 292.58,131.54 300.5,137.5C 291.592,133.538 282.925,129.205 274.5,124.5 Z"/></g>
<g><path style="opacity:0.098" fill="#fff9e0" d="M 169.5,126.5 C 162.835,130.728 155.835,134.394 148.5,137.5C 154.794,132.519 161.794,128.853 169.5,126.5 Z"/></g>
<g><path style="opacity:0.016" fill="#fffcef" d="M 300.5,137.5 C 304.207,139.688 307.54,142.355 310.5,145.5C 306.246,143.905 302.912,141.238 300.5,137.5 Z"/></g>
<g><path style="opacity:0.004" fill="#fffbea" d="M 317.5,140.5 C 322.089,142.124 325.423,145.124 327.5,149.5C 323.564,147.234 320.231,144.234 317.5,140.5 Z"/></g>
<g><path style="opacity:0.133" fill="#fff7e1" d="M 147.5,138.5 C 145.377,141.956 142.377,144.289 138.5,145.5C 140.918,142.453 143.918,140.12 147.5,138.5 Z"/></g>
<g><path style="opacity:0.2" fill="#fff9e4" d="M 143.5,131.5 C 136.192,137.804 128.859,144.138 121.5,150.5C 123.22,147.269 125.553,144.436 128.5,142C 132.859,137.495 137.859,133.995 143.5,131.5 Z"/></g>
<g><path style="opacity:0.025" fill="#fffaeb" d="M 327.5,149.5 C 331.415,151.987 334.415,155.32 336.5,159.5C 332.766,156.769 329.766,153.436 327.5,149.5 Z"/></g>
<g><path style="opacity:0.008" fill="#fff3db" d="M 136.5,147.5 C 134.673,150.754 132.007,153.087 128.5,154.5C 130.569,151.427 133.236,149.094 136.5,147.5 Z"/></g>
<g><path style="opacity:0.11" fill="#fffae2" d="M 128.5,154.5 C 126.118,159.248 122.784,163.248 118.5,166.5C 120.709,161.619 124.043,157.619 128.5,154.5 Z"/></g>
<g><path style="opacity:0.125" fill="#fffbeb" d="M 310.5,145.5 C 314.726,147.879 318.559,150.879 322,154.5C 330.829,164.33 338.496,174.996 345,186.5C 347.684,190.863 349.518,195.53 350.5,200.5C 349.542,200.047 348.708,199.381 348,198.5C 339.446,178.064 326.946,160.398 310.5,145.5 Z"/></g>
<g><path style="opacity:0.016" fill="#fffbed" d="M 338.5,162.5 C 339.643,162.908 340.643,163.575 341.5,164.5C 347.563,173.294 352.563,182.627 356.5,192.5C 350.906,182.243 344.906,172.243 338.5,162.5 Z"/></g>
<g><path style="opacity:0.125" fill="#fffae8" d="M 120.5,151.5 C 114.469,159.191 108.469,166.858 102.5,174.5C 103.973,171.553 105.473,168.553 107,165.5C 110.718,162.384 113.718,158.718 116,154.5C 117.129,152.859 118.629,151.859 120.5,151.5 Z"/></g>
<g><path style="opacity:0.031" fill="#fff8df" d="M 117.5,167.5 C 115.938,171.392 113.605,174.725 110.5,177.5C 111.851,173.458 114.185,170.125 117.5,167.5 Z"/></g>
<g><path style="opacity:0.137" fill="#fff7d5" d="M 102.5,174.5 C 102.262,176.645 101.262,178.312 99.5,179.5C 87.5924,177.014 75.5924,175.514 63.5,175C 61.6368,176.418 61.1368,178.251 62,180.5C 66.3684,181.664 70.2017,183.664 73.5,186.5C 68.4562,185.728 63.9562,183.728 60,180.5C 58.9639,177.32 59.7972,174.82 62.5,173C 74.1351,173.132 85.6351,174.632 97,177.5C 99.3759,177.315 101.209,176.315 102.5,174.5 Z"/></g>
<g><path style="opacity:0.145" fill="#fff6d1" d="M 110.5,177.5 C 110.227,179.451 110.893,180.951 112.5,182C 120.211,183.792 127.878,185.792 135.5,188C 136.942,188.377 137.942,189.21 138.5,190.5C 128.824,188.109 119.157,185.609 109.5,183C 107.372,180.992 107.705,179.159 110.5,177.5 Z"/></g>
<g><path style="opacity:0.019" fill="#fff9e0" d="M 125.5,195.5 C 118.421,193.991 111.421,192.491 104.5,191C 107.502,193.503 110.835,195.503 114.5,197C 116.063,197.759 117.063,198.926 117.5,200.5C 111.951,197.944 106.951,194.61 102.5,190.5C 102.709,189.914 103.043,189.414 103.5,189C 105.845,188.83 108.179,189.163 110.5,190C 115.784,191.392 120.784,193.225 125.5,195.5 Z"/></g>
<g><path style="opacity:0.016" fill="#fff9e0" d="M 138.5,190.5 C 141.916,190.528 144.916,191.528 147.5,193.5C 144.215,193.072 141.215,192.072 138.5,190.5 Z"/></g>
<g><path style="opacity:0.086" fill="#fff9e6" d="M 73.5,186.5 C 79.293,188.375 84.9597,190.541 90.5,193C 93.0371,195.201 93.0371,197.368 90.5,199.5C 90.33,198.178 90.6634,197.011 91.5,196C 85.2804,193.059 79.2804,189.892 73.5,186.5 Z"/></g>
<g><path style="opacity:0.592" fill="#fff7db" d="M 125.5,195.5 C 129.286,195.32 132.619,196.32 135.5,198.5C 131.952,197.87 128.619,196.87 125.5,195.5 Z"/></g>
<g><path style="opacity:0.122" fill="#fff7e0" d="M 147.5,193.5 C 154.804,194.317 161.47,196.65 167.5,200.5C 161.156,198.775 154.822,196.942 148.5,195C 147.944,194.617 147.611,194.117 147.5,193.5 Z"/></g>
<g><path style="opacity:0.027" fill="#fffced" d="M 109.5,205.5 C 106.035,204.516 102.869,202.85 100,200.5C 99.6174,201.056 99.1174,201.389 98.5,201.5C 98.8425,199.775 99.8425,199.275 101.5,200C 104.756,201.116 107.422,202.949 109.5,205.5 Z"/></g>
<g><path style="opacity:0.22" fill="#fff7d8" d="M 118.5,200.5 C 122.806,202.988 127.139,205.488 131.5,208C 133.041,209.371 134.375,210.871 135.5,212.5C 129.232,209.213 123.565,205.213 118.5,200.5 Z"/></g>
<g><path style="opacity:0.102" fill="#fff5d2" d="M 167.5,200.5 C 176.688,202.772 185.354,206.105 193.5,210.5C 184.111,208.491 175.445,205.158 167.5,200.5 Z"/></g>
<g><path style="opacity:0.013" fill="#fff7d8" d="M 356.5,192.5 C 358.008,194.985 359.341,197.652 360.5,200.5C 369.824,202.558 379.157,204.725 388.5,207C 390.747,208.277 392.747,209.777 394.5,211.5C 383.233,207.211 371.566,204.378 359.5,203C 357.958,199.666 356.958,196.166 356.5,192.5 Z"/></g>
<g><path style="opacity:0.467" fill="#fff7dd" d="M 135.5,198.5 C 145.549,200.329 154.882,203.662 163.5,208.5C 153.72,206.067 144.387,202.734 135.5,198.5 Z"/></g>
<g><path style="opacity:0.176" fill="#fff5ce" d="M 109.5,205.5 C 111.989,205.241 113.656,206.241 114.5,208.5C 112.566,207.89 110.899,206.89 109.5,205.5 Z"/></g>
<g><path style="opacity:0.22" fill="#fff8df" d="M 378.5,214.5 C 367.237,212.655 355.904,212.155 344.5,213C 340.207,213.899 336.207,215.399 332.5,217.5C 335.943,213.778 340.277,211.611 345.5,211C 356.906,209.737 367.906,210.904 378.5,214.5 Z"/></g>
<g><path style="opacity:0.129" fill="#fff8df" d="M 193.5,210.5 C 200.239,212.365 206.905,214.532 213.5,217C 215.584,217.697 217.251,218.864 218.5,220.5C 209.59,218.315 201.257,214.981 193.5,210.5 Z"/></g>
<g><path style="opacity:0.42" fill="#fff9e3" d="M 163.5,208.5 C 171.111,209.809 178.111,212.476 184.5,216.5C 178.479,214.991 172.479,213.157 166.5,211C 165.058,210.623 164.058,209.79 163.5,208.5 Z"/></g>
<g><path style="opacity:0.535" fill="#fff7d7" d="M 394.5,211.5 C 397.861,212.883 401.361,213.883 405,214.5C 425.58,212.372 446.08,213.206 466.5,217C 469.025,217.424 471.025,218.59 472.5,220.5C 448.123,215.027 423.457,213.193 398.5,215C 396.907,214.051 395.574,212.885 394.5,211.5 Z"/></g>
<g><path style="opacity:0.616" fill="#fff5cf" d="M 378.5,214.5 C 381.01,214.054 383.01,214.72 384.5,216.5C 382.214,216.405 380.214,215.738 378.5,214.5 Z"/></g>
<g><path style="opacity:0.192" fill="#fff8de" d="M 135.5,212.5 C 140.061,213.946 143.728,216.613 146.5,220.5C 142.268,218.6 138.601,215.933 135.5,212.5 Z"/></g>
<g><path style="opacity:0.03" fill="#fffcf0" d="M 114.5,208.5 C 120.599,212.083 126.599,215.917 132.5,220C 135.288,221.719 137.621,223.885 139.5,226.5C 131.727,221.105 123.727,215.939 115.5,211C 114.748,210.329 114.414,209.496 114.5,208.5 Z"/></g>
<g><path style="opacity:0.478" fill="#fffaea" d="M 389.5,218.5 C 392.46,219.032 392.793,219.699 390.5,220.5C 390.167,219.833 389.833,219.167 389.5,218.5 Z"/></g>
<g><path style="opacity:0.078" fill="#fff8e3" d="M 189.5,218.5 C 195.441,220.424 201.441,222.257 207.5,224C 210.187,225.049 212.52,226.549 214.5,228.5C 205.59,226.315 197.257,222.981 189.5,218.5 Z"/></g>
<g><path style="opacity:0.306" fill="#fff7e8" d="M 390.5,220.5 C 389.486,221.674 388.153,222.34 386.5,222.5C 387.287,220.896 388.62,220.229 390.5,220.5 Z"/></g>
<g><path style="opacity:0.02" fill="#fff9e1" d="M 350.5,200.5 C 351.404,201.209 351.737,202.209 351.5,203.5C 329.644,204.369 316.311,215.369 311.5,236.5C 315.01,215.165 327.676,203.665 349.5,202C 350.056,201.617 350.389,201.117 350.5,200.5 Z"/></g>
<g><path style="opacity:0.671" fill="#fff8df" d="M 472.5,220.5 C 475.955,221.128 477.122,223.128 476,226.5C 474.352,228.028 472.352,228.695 470,228.5C 468.293,228.492 466.793,228.158 465.5,227.5C 472.4,229.257 474.733,226.924 472.5,220.5 Z"/></g>
<g><path style="opacity:0.51" fill="#fff6d5" d="M 464.5,227.5 C 442.131,222.331 419.798,222.331 397.5,227.5C 400.397,225.222 403.73,223.722 407.5,223C 421.812,221.178 436.146,221.178 450.5,223C 455.55,223.696 460.216,225.196 464.5,227.5 Z"/></g>
<g><path style="opacity:0.224" fill="#fff4dc" d="M 149.5,222.5 C 153.564,224.022 156.564,226.689 158.5,230.5C 154.854,228.518 151.854,225.851 149.5,222.5 Z"/></g>
<g><path style="opacity:0.078" fill="#fffae1" d="M 223.5,222.5 C 230.539,223.863 236.872,226.529 242.5,230.5C 235.682,228.58 229.349,225.913 223.5,222.5 Z"/></g>
<g><path style="opacity:0.275" fill="#fff8de" d="M 386.5,222.5 C 380.647,225.84 375.48,230.173 371,235.5C 367.977,242.007 364.81,248.341 361.5,254.5C 363.883,239.124 372.216,228.457 386.5,222.5 Z"/></g>
<g><path style="opacity:0.027" fill="#fffbee" d="M 214.5,228.5 C 219.238,229.698 223.905,231.198 228.5,233C 229.942,233.377 230.942,234.21 231.5,235.5C 226.762,234.302 222.095,232.802 217.5,231C 216.058,230.623 215.058,229.79 214.5,228.5 Z"/></g>
<g><path style="opacity:0.058" fill="#fffbee" d="M 98.5,201.5 C 89.001,233.541 89.1677,265.541 99,297.5C 100.067,299.692 101.567,301.358 103.5,302.5C 102.749,303.573 101.749,303.74 100.5,303C 90.4886,280.257 86.9886,256.424 90,231.5C 91.5271,222.392 93.5271,213.392 96,204.5C 96.8518,203.429 97.6851,202.429 98.5,201.5 Z"/></g>
<g><path style="opacity:0.078" fill="#fffae7" d="M 332.5,217.5 C 329.835,220.335 327.335,223.335 325,226.5C 322.94,235.095 320.44,243.429 317.5,251.5C 318.167,241.664 320.667,232.33 325,223.5C 327.106,220.882 329.606,218.882 332.5,217.5 Z"/></g>
<g><path style="opacity:0.114" fill="#fff9e4" d="M 395.5,228.5 C 389.83,231.333 384.497,234.666 379.5,238.5C 380.591,235.572 382.591,233.406 385.5,232C 388.5,230.5 391.5,229 394.5,227.5C 395.107,227.624 395.44,227.957 395.5,228.5 Z"/></g>
<g><path style="opacity:0.075" fill="#fff7d7" d="M 242.5,230.5 C 249.436,232.312 256.103,234.812 262.5,238C 264.324,238.66 265.657,239.827 266.5,241.5C 258.05,238.583 250.05,234.916 242.5,230.5 Z"/></g>
<g><path style="opacity:0.188" fill="#fffbec" d="M 231.5,235.5 C 241.847,238.51 251.513,242.844 260.5,248.5C 250.39,244.941 240.723,240.608 231.5,235.5 Z"/></g>
<g><path style="opacity:0.004" fill="#fffbec" d="M 159.5,230.5 C 166.919,235.745 173.919,241.578 180.5,248C 186.431,253.424 191.764,259.258 196.5,265.5C 183.859,254.039 171.526,242.373 159.5,230.5 Z"/></g>
<g><path style="opacity:0.137" fill="#fffcf0" d="M 261.5,248.5 C 266.98,250.405 271.98,253.071 276.5,256.5C 271.753,254.963 267.087,253.13 262.5,251C 261.748,250.329 261.414,249.496 261.5,248.5 Z"/></g>
<g><path style="opacity:0.145" fill="#fff6d9" d="M 266.5,241.5 C 277.689,245.427 288.022,250.927 297.5,258C 298.252,258.671 298.586,259.504 298.5,260.5C 288.341,253.347 277.674,247.014 266.5,241.5 Z"/></g>
<g><path style="opacity:0.059" fill="#fffaea" d="M 311.5,236.5 C 311.752,246.662 308.418,255.328 301.5,262.5C 300.893,262.376 300.56,262.043 300.5,261.5C 303.051,259.422 304.884,256.756 306,253.5C 307.416,247.518 309.249,241.851 311.5,236.5 Z"/></g>
<g><path style="opacity:0.026" fill="#fffbef" d="M 279.5,258.5 C 284.322,259.998 288.322,262.664 291.5,266.5C 287.148,264.327 283.148,261.66 279.5,258.5 Z"/></g>
<g><path style="opacity:0.183" fill="#fff9e5" d="M 90.5,199.5 C 78.9908,235.537 79.9908,271.204 93.5,306.5C 91.9563,309.108 89.6229,310.442 86.5,310.5C 88.2528,308.777 90.2528,307.277 92.5,306C 88.8372,300.354 86.3372,294.187 85,287.5C 78.5636,259.996 79.2303,232.663 87,205.5C 87.7162,203.121 88.8828,201.121 90.5,199.5 Z"/></g>
<g><path style="opacity:0.008" fill="#fff9e3" d="M 317.5,251.5 C 316.032,257.077 313.699,262.243 310.5,267C 313.341,271.332 316.341,275.499 319.5,279.5C 315.116,276.118 311.45,272.118 308.5,267.5C 311.509,262.102 314.509,256.769 317.5,251.5 Z"/></g>
<g><path style="opacity:0.067" fill="#fffae7" d="M 141.5,227.5 C 173.962,252.13 202.295,280.963 226.5,314C 235.813,319.635 245.146,325.302 254.5,331C 257.432,333.285 260.098,335.785 262.5,338.5C 250.135,330.158 237.469,322.158 224.5,314.5C 205.845,289.338 184.845,266.172 161.5,245C 156.052,240.436 150.385,236.102 144.5,232C 143.117,230.729 142.117,229.229 141.5,227.5 Z"/></g>
<g><path style="opacity:0.09" fill="#fff9e4" d="M 361.5,254.5 C 359.186,264.761 357.02,275.095 355,285.5C 353.979,287.97 352.812,290.304 351.5,292.5C 353.717,279.36 357.051,266.694 361.5,254.5 Z"/></g>
<g><path style="opacity:0.212" fill="#fff9e2" d="M 196.5,265.5 C 200.898,268.895 204.564,272.895 207.5,277.5C 203.102,274.105 199.436,270.105 196.5,265.5 Z"/></g>
<g><path style="opacity:0.125" fill="#fffaea" d="M 207.5,277.5 C 212.287,280.948 215.954,285.281 218.5,290.5C 214.464,286.466 210.798,282.132 207.5,277.5 Z"/></g>
<g><path style="opacity:0.024" fill="#fffbe1" d="M 319.5,279.5 C 322.449,281.373 324.449,284.039 325.5,287.5C 322.539,285.588 320.539,282.921 319.5,279.5 Z"/></g>
<g><path style="opacity:0.025" fill="#fffcf1" d="M 325.5,287.5 C 327.104,288.287 327.771,289.62 327.5,291.5C 326.326,290.486 325.66,289.153 325.5,287.5 Z"/></g>
<g><path style="opacity:0.18" fill="#fffae4" d="M 218.5,290.5 C 222.3,292.963 224.967,296.296 226.5,300.5C 222.874,297.905 220.208,294.572 218.5,290.5 Z"/></g>
<g><path style="opacity:0.078" fill="#fffae7" d="M 291.5,266.5 C 309.416,276.595 321.249,291.595 327,311.5C 327.667,318.5 327.667,325.5 327,332.5C 325.641,335.724 324.141,338.724 322.5,341.5C 326.769,327.357 326.269,313.357 321,299.5C 313.44,286.441 303.606,275.441 291.5,266.5 Z"/></g>
<g><path style="opacity:0.034" fill="#fff8de" d="M 108.5,301.5 C 110.978,300.836 113.645,300.503 116.5,300.5C 135.523,302.743 154.523,305.243 173.5,308C 179.294,309.509 184.961,311.009 190.5,312.5C 170.748,309.906 151.081,306.739 131.5,303C 123.875,301.858 116.208,301.358 108.5,301.5 Z"/></g>
<g><path style="opacity:0.071" fill="#fffaee" d="M 226.5,300.5 C 229.833,303.833 233.167,307.167 236.5,310.5C 231.396,308.974 228.062,305.641 226.5,300.5 Z"/></g>
<g><path style="opacity:0.012" fill="#fff9e6" d="M 155.5,315.5 C 142.357,313.711 129.19,312.045 116,310.5C 113.5,310.667 111,310.833 108.5,311C 107.692,311.308 107.025,311.808 106.5,312.5C 109.97,314.616 113.637,316.283 117.5,317.5C 113.738,317.373 110.072,316.706 106.5,315.5C 105.05,314.15 104.383,312.484 104.5,310.5C 107.928,309.526 111.428,308.859 115,308.5C 128.742,310.245 142.242,312.578 155.5,315.5 Z"/></g>
<g><path style="opacity:0.09" fill="#fffbe7" d="M 351.5,293.5 C 350.45,301.653 347.45,308.987 342.5,315.5C 345.005,307.842 348.005,300.509 351.5,293.5 Z"/></g>
<g><path style="opacity:0.663" fill="#fff4cb" d="M 155.5,315.5 C 161.845,315.224 167.845,316.224 173.5,318.5C 167.263,318.142 161.263,317.142 155.5,315.5 Z"/></g>
<g><path style="opacity:0.075" fill="#fff8de" d="M 117.5,317.5 C 119.857,317.337 122.19,317.503 124.5,318C 126.32,318.2 127.653,319.034 128.5,320.5C 124.521,320.258 120.854,319.258 117.5,317.5 Z"/></g>
<g><path style="opacity:0.067" fill="#fff8e0" d="M 236.5,310.5 C 245.739,315.124 254.739,320.29 263.5,326C 265.373,327.704 267.04,329.537 268.5,331.5C 259.29,324.637 249.456,318.637 239,313.5C 237.69,312.87 236.856,311.87 236.5,310.5 Z"/></g>
<g><path style="opacity:0.021" fill="#fffaeb" d="M 190.5,312.5 C 194.22,312.564 197.886,313.064 201.5,314C 208.326,314.983 209.993,318.316 206.5,324C 201.132,324.478 195.799,324.145 190.5,323C 184.617,321.725 178.95,320.225 173.5,318.5C 184.156,320.332 194.823,321.832 205.5,323C 208.167,321 208.167,319 205.5,317C 200.226,316.094 195.226,314.594 190.5,312.5 Z"/></g>
<g><path style="opacity:0.071" fill="#fff9db" d="M 327.5,291.5 C 328.885,292.574 330.051,293.907 331,295.5C 334.997,304.502 336.664,313.835 336,323.5C 338.031,320.645 340.197,317.978 342.5,315.5C 335.641,331.51 332.808,330.177 334,311.5C 332.525,304.576 330.359,297.91 327.5,291.5 Z"/></g>
<g><path style="opacity:0.443" fill="#fff5ce" d="M 129.5,320.5 C 138.28,321.694 146.947,323.528 155.5,326C 159.264,326.852 162.597,328.352 165.5,330.5C 153.135,327.747 141.135,324.414 129.5,320.5 Z"/></g>
<g><path style="opacity:0.82" fill="#ffeca4" d="M 127.5,328.5 C 123.381,328.512 119.548,327.512 116,325.5C 116.15,327.506 116.65,329.506 117.5,331.5C 116.504,331.586 115.671,331.252 115,330.5C 114.696,328.559 113.863,326.893 112.5,325.5C 117.053,324.457 121.553,324.79 126,326.5C 127.03,326.836 127.53,327.503 127.5,328.5 Z"/></g>
<g><path style="opacity:0.012" fill="#fff8df" d="M 128.5,328.5 C 140.398,330.303 151.731,333.637 162.5,338.5C 152.175,336.007 141.842,333.507 131.5,331C 130.058,330.623 129.058,329.79 128.5,328.5 Z"/></g>
<g><path style="opacity:0.4" fill="#fffae7" d="M 86.5,310.5 C 83.8672,311.66 83.0339,313.66 84,316.5C 89.5364,319.014 95.3697,320.847 101.5,322C 107.615,331.277 114.281,340.11 121.5,348.5C 118.606,347.118 116.106,345.118 114,342.5C 109.249,336.914 105.082,330.914 101.5,324.5C 96.6611,322.498 91.6611,320.998 86.5,320C 79.8843,316.458 79.8843,313.291 86.5,310.5 Z"/></g>
<g><path style="opacity:0.02" fill="#fffae6" d="M 379.5,238.5 C 375.514,245.473 372.347,252.806 370,260.5C 366.508,281.324 360.508,301.324 352,320.5C 343.424,331.321 335.09,342.321 327,353.5C 322.138,359.544 316.305,364.211 309.5,367.5C 314.398,364.104 318.898,360.104 323,355.5C 332.031,343.809 341.031,332.143 350,320.5C 353.009,312.8 356.009,305.133 359,297.5C 362.183,281.95 366.183,266.617 371,251.5C 372.487,246.2 375.32,241.867 379.5,238.5 Z"/></g>
<g><path style="opacity:0.051" fill="#fff7dc" d="M 117.5,331.5 C 123.167,337.5 128.833,343.5 134.5,349.5C 127.75,345.069 122.083,339.069 117.5,331.5 Z"/></g>
<g><path style="opacity:0.022" fill="#fffbf0" d="M 268.5,331.5 C 270.735,332.228 272.568,333.561 274,335.5C 275.096,343.806 271.93,345.973 264.5,342C 263.177,341.184 262.511,340.017 262.5,338.5C 264.84,339.843 267.173,341.177 269.5,342.5C 272.975,341.857 274.141,339.857 273,336.5C 271.242,334.917 269.742,333.25 268.5,331.5 Z"/></g>
<g><path style="opacity:0.145" fill="#fff9df" d="M 167.5,331.5 C 170.425,331.46 173.091,332.293 175.5,334C 180.453,339.107 184.786,344.607 188.5,350.5C 184.032,345.861 179.699,341.028 175.5,336C 172.367,335.14 169.7,333.64 167.5,331.5 Z"/></g>
<g><path style="opacity:0.129" fill="#fffaed" d="M 162.5,338.5 C 165.691,339.092 168.691,340.259 171.5,342C 174.211,345.922 177.045,349.756 180,353.5C 185.398,358.407 190.898,363.073 196.5,367.5C 193.411,366.261 190.411,364.761 187.5,363C 180.569,356.908 174.569,350.074 169.5,342.5C 166.651,341.9 164.318,340.567 162.5,338.5 Z"/></g>
<g><path style="opacity:0.129" fill="#fffcea" d="M 121.5,348.5 C 125.5,350.5 128.5,353.5 130.5,357.5C 126.5,355.5 123.5,352.5 121.5,348.5 Z"/></g>
<g><path style="opacity:0.137" fill="#fff9e3" d="M 188.5,350.5 C 193.527,353.345 198.194,356.679 202.5,360.5C 196.993,358.323 192.326,354.99 188.5,350.5 Z"/></g>
<g><path style="opacity:0.176" fill="#fff8de" d="M 137.5,352.5 C 141.774,354.119 145.107,356.786 147.5,360.5C 143.397,358.784 140.064,356.117 137.5,352.5 Z"/></g>
<g><path style="opacity:0.09" fill="#fff9e2" d="M 322.5,341.5 C 317.071,349.597 310.071,355.93 301.5,360.5C 308.799,354.536 315.799,348.203 322.5,341.5 Z"/></g>
<g><path style="opacity:0.102" fill="#fffae4" d="M 130.5,357.5 C 133.444,359.311 136.444,361.144 139.5,363C 140.252,363.671 140.586,364.504 140.5,365.5C 136.296,363.967 132.963,361.3 130.5,357.5 Z"/></g>
<g><path style="opacity:0.196" fill="#fff5cf" d="M 149.5,361.5 C 156.222,365.175 162.889,368.842 169.5,372.5C 167.396,372.799 165.396,372.466 163.5,371.5C 158.452,368.648 153.785,365.315 149.5,361.5 Z"/></g>
<g><path style="opacity:0.169" fill="#fff8e0" d="M 202.5,360.5 C 213.005,364.456 223.671,367.456 234.5,369.5C 233.903,370.139 233.07,370.472 232,370.5C 222.486,369.002 213.32,366.502 204.5,363C 203.619,362.292 202.953,361.458 202.5,360.5 Z"/></g>
<g><path style="opacity:0.204" fill="#fffbef" d="M 140.5,365.5 C 142.027,365.427 143.027,366.094 143.5,367.5C 141.973,367.573 140.973,366.906 140.5,365.5 Z"/></g>
<g><path style="opacity:0.118" fill="#fff7dd" d="M 301.5,360.5 C 296.057,365.864 289.391,369.197 281.5,370.5C 288.299,367.767 294.966,364.434 301.5,360.5 Z"/></g>
<g><path style="opacity:0.071" fill="#fffae6" d="M 196.5,367.5 C 204.386,370.905 212.386,373.905 220.5,376.5C 211.519,375.843 203.519,372.843 196.5,367.5 Z"/></g>
<g><path style="opacity:0.286" fill="#fff4c9" d="M 236.5,370.5 C 244.037,370.518 251.371,371.185 258.5,372.5C 250.921,372.906 243.588,372.239 236.5,370.5 Z"/></g>
<g><path style="opacity:0.024" fill="#fff9e2" d="M 309.5,367.5 C 308.71,368.794 307.71,369.961 306.5,371C 300.069,374.198 293.402,376.698 286.5,378.5C 293.976,374.597 301.642,370.93 309.5,367.5 Z"/></g>
<g><path style="opacity:0.149" fill="#fffbf0" d="M 143.5,367.5 C 149.668,370.08 155.335,373.414 160.5,377.5C 155.536,376.051 150.869,373.885 146.5,371C 145.29,369.961 144.29,368.794 143.5,367.5 Z"/></g>
<g><path style="opacity:0.118" fill="#fff7dc" d="M 169.5,372.5 C 178.39,375.129 187.057,378.129 195.5,381.5C 186.049,380.462 177.382,377.462 169.5,372.5 Z"/></g>
<g><path style="opacity:0.114" fill="#fff9e7" d="M 220.5,376.5 C 223.727,376.676 226.727,377.343 229.5,378.5C 226.171,378.785 223.171,378.118 220.5,376.5 Z"/></g>
<g><path style="opacity:0.192" fill="#fff6d7" d="M 232.5,378.5 C 240.529,379.041 248.529,379.874 256.5,381C 253.883,381.822 251.216,382.322 248.5,382.5C 243.728,381.129 238.728,380.296 233.5,380C 232.944,379.617 232.611,379.117 232.5,378.5 Z"/></g>
<g><path style="opacity:0.133" fill="#fffae6" d="M 160.5,377.5 C 167.793,379.927 174.793,382.927 181.5,386.5C 173.844,384.843 166.844,381.843 160.5,377.5 Z"/></g>
<g><path style="opacity:0.216" fill="#fff0b9" d="M 197.5,381.5 C 211.435,383.854 225.435,384.521 239.5,383.5C 238.737,384.268 237.737,384.768 236.5,385C 227.833,385.667 219.167,385.667 210.5,385C 205.756,384.885 201.422,383.718 197.5,381.5 Z"/></g>
<g><path style="opacity:0.573" fill="#fff8dd" d="M 182.5,386.5 C 185.428,386.565 188.095,387.232 190.5,388.5C 187.505,388.706 184.838,388.04 182.5,386.5 Z"/></g>
<g><path style="opacity:0.467" fill="#fff9e3" d="M 286.5,378.5 C 286.047,379.458 285.381,380.292 284.5,381C 255.51,392.979 225.51,396.313 194.5,391C 192.68,390.8 191.347,389.966 190.5,388.5C 223.576,395.047 255.576,391.714 286.5,378.5 Z"/></g>
</svg>
